<svg class="icon icon__like" viewBox="0 0 24 24" xmlns="http://www.w3.org/2000/svg" data-v-f5d47cc0=""><path d="M21.2913 4.61183C20.7805 4.10083 20.1741 3.69547 19.5066 3.41891C18.8392 3.14235 18.1238 3 17.4013 3C16.6788 3 15.9634 3.14235 15.2959 3.41891C14.6285 3.69547 14.022 4.10083 13.5113 4.61183L12.4513 5.67183L11.3913 4.61183C10.3596 3.58013 8.96032 3.00053 7.50129 3.00053C6.04226 3.00053 4.64298 3.58013 3.61129 4.61183C2.5796 5.64352 2 7.04279 2 8.50183C2 9.96086 2.5796 11.3601 3.61129 12.3918L4.67129 13.4518L12.4513 21.2318L20.2313 13.4518L21.2913 12.3918C21.8023 11.8811 22.2076 11.2746 22.4842 10.6072C22.7608 9.93972 22.9031 9.22431 22.9031 8.50183C22.9031 7.77934 22.7608 7.06393 22.4842 6.39647C22.2076 5.72901 21.8023 5.12258 21.2913 4.61183V4.61183Z" stroke="currentColor" stroke-width="2" stroke-linecap="round" stroke-linejoin="round" data-v-f5d47cc0="" fill="none" color="#da002b"></path></svg>