<svg width="22" height="19" viewBox="0 0 22 19" fill="none" xmlns="http://www.w3.org/2000/svg">
<path d="M11.0001 19C10.7925 19.0043 10.589 18.919 10.4164 18.7554L1.70158 9.99537C-0.566134 7.71106 -0.566134 3.99646 1.70158 1.70386C2.91958 0.551888 4.35667 -0.0427311 5.81965 -5.04733e-05C7.28355 -0.0390574 8.72072 0.559934 9.93772 1.71629L11.0001 2.78175L12.0624 1.71629C14.333 -0.568019 18.0279 -0.568019 20.2986 1.71629C22.5692 4.0006 22.5692 7.71106 20.2986 10.0078L11.5867 18.7554C11.413 18.9191 11.2085 19.0044 11.0001 19ZM5.81965 1.65825C4.7716 1.63531 3.7438 2.06939 2.87483 2.90198C1.2492 4.53541 1.2492 7.19284 2.87483 8.82627L11.0001 16.9975L19.1282 8.81797C20.7509 7.18455 20.7509 4.52712 19.1282 2.89369C17.5055 1.26026 14.8613 1.24368 13.2328 2.90198L11.5867 4.56028C11.4127 4.71969 11.21 4.80447 11.003 4.80447C10.7959 4.80447 10.5933 4.71969 10.4193 4.56028L8.7557 2.90198C7.88911 2.07207 6.86469 1.63812 5.81965 1.65825Z" fill="#1D1818"/>
</svg>
