<svg width="55" height="44" viewBox="0 0 55 44" fill="none" xmlns="http://www.w3.org/2000/svg">
<path d="M3.86771 39.6731H6.11644C6.61612 41.7246 8.82121 43.283 11.4615 43.283C14.1013 43.283 16.3064 41.7332 16.8065 39.6731H36.8054C37.3051 41.7246 39.5101 43.283 42.1504 43.283C44.7902 43.283 46.9953 41.7332 47.4955 39.6731H48.3212C51.0915 39.6731 53.3511 37.8099 53.3511 35.5256V32.9905C53.3511 32.2827 53.1229 31.6023 52.7101 30.9931C52.6773 30.9305 52.6341 30.8765 52.5905 30.8229C52.5468 30.7603 52.5036 30.6973 52.46 30.6347L47.1586 24.3195C46.2133 23.1997 44.6707 22.5279 43.0197 22.5279H33.1339V17.0637C33.1339 15.308 31.3957 13.8748 29.2665 13.8748L3.85649 13.8751C1.72729 13.8665 0 15.2907 0 17.0464V36.485C0 38.2403 1.73823 39.6735 3.86743 39.6735L3.86771 39.6731ZM11.461 41.4917C9.64691 41.4917 8.18011 40.2822 8.18011 38.7864C8.18011 37.2905 9.64691 36.0811 11.461 36.0811C13.2642 36.0811 14.731 37.2905 14.7419 38.7774V38.7864C14.7419 40.2732 13.2643 41.4917 11.461 41.4917V41.4917ZM42.139 41.4917C40.3358 41.4917 38.8581 40.2822 38.8581 38.7864C38.8581 37.2905 40.3249 36.0811 42.139 36.0811C43.9422 36.0811 45.409 37.2905 45.4199 38.7774V38.7864V38.7954C45.4199 40.2732 43.9531 41.4917 42.139 41.4917V41.4917ZM45.3654 25.3316L49.6237 30.4107H42.7474V24.3197H43.0188C43.9532 24.3194 44.833 24.6958 45.3654 25.3316ZM40.5746 24.3194V31.3064C40.5746 31.799 41.0633 32.202 41.6608 32.202H51.0033C51.1119 32.4528 51.1769 32.7216 51.1769 32.9904V35.5255C51.1769 36.8245 49.8952 37.8813 48.3198 37.8813H47.4941C46.9835 35.8299 44.7894 34.2894 42.1491 34.2894C39.5093 34.2894 37.3146 35.8392 36.804 37.8813H32.9258C33.0453 37.6035 33.1213 37.3081 33.1213 36.9947L33.1222 24.3194L40.5746 24.3194ZM2.17266 17.046C2.17266 16.2755 2.93332 15.6577 3.8563 15.6577H29.2547C30.189 15.6577 30.9492 16.2849 30.9492 17.055V36.9946C30.9492 37.4872 30.4714 37.8812 29.874 37.8812H16.8052C16.2946 35.8298 14.1005 34.2893 11.4602 34.2893C8.82036 34.2893 6.62575 35.8391 6.11513 37.8812H3.86686C2.93253 37.8812 2.17193 37.254 2.17193 36.4836L2.17266 17.046Z" fill="#384685"/>
<path d="M43.9864 0C38.2941 0 33.6551 3.81612 33.6551 8.51885C33.6551 13.2216 38.2831 17.0377 43.9864 17.0377C49.6788 17.0377 54.3178 13.2216 54.3178 8.51885C54.3173 3.81574 49.6897 0 43.9864 0ZM43.9864 15.2368C39.4888 15.2368 35.8279 12.2182 35.8279 8.50964C35.8279 4.8011 39.4888 1.78243 43.9864 1.78243C48.484 1.78243 52.145 4.81013 52.145 8.51866C52.145 12.2272 48.484 15.2368 43.9864 15.2368Z" fill="#384685"/>
<path d="M46.9847 7.62247H45.0838V5.11438C45.0838 4.62176 44.595 4.21875 43.9976 4.21875C43.4001 4.21875 42.9114 4.62176 42.9114 5.11438V8.5181C42.9114 9.01072 43.4001 9.41373 43.9976 9.41373H46.9852C47.5826 9.41373 48.0714 9.01072 48.0714 8.5181C48.0714 8.02549 47.5821 7.62247 46.9847 7.62247H46.9847Z" fill="#384685"/>
</svg>
