<svg width="34" height="44" viewBox="0 0 34 44" fill="none" xmlns="http://www.w3.org/2000/svg">
<path d="M17 44C16.5623 44 16.15 43.7912 15.8909 43.438L4.01874 27.2482C1.71655 24.1088 0.5 20.3927 0.5 16.5C0.5 7.40204 7.90204 0 17 0C26.098 0 33.5 7.40204 33.5 16.5C33.5 20.3927 32.2834 24.1088 29.9819 27.2482L18.1091 43.438C17.85 43.7912 17.4377 44 17 44ZM17 2.75C9.41803 2.75 3.25 8.91803 3.25 16.5C3.25 19.8032 4.28259 22.9581 6.23633 25.6221L17 40.3L27.7643 25.6221C29.7174 22.9581 30.75 19.8032 30.75 16.5C30.75 8.91803 24.582 2.75 17 2.75ZM17 23.375C13.2094 23.375 10.125 20.2906 10.125 16.5C10.125 12.7094 13.2094 9.625 17 9.625C20.7906 9.625 23.875 12.7094 23.875 16.5C23.875 20.2906 20.7906 23.375 17 23.375ZM17 12.375C14.7253 12.375 12.875 14.2253 12.875 16.5C12.875 18.7747 14.7253 20.625 17 20.625C19.2747 20.625 21.125 18.7747 21.125 16.5C21.125 14.2253 19.2747 12.375 17 12.375Z" fill="#384685"/>
</svg>
