<svg width="17" height="21" viewBox="0 0 17 21" fill="none" xmlns="http://www.w3.org/2000/svg">
<path d="M8.5 21C8.29108 21 8.09433 20.9003 7.97064 20.7318L2.3044 13.0048C1.20563 11.5065 0.625 9.73288 0.625 7.875C0.625 3.53279 4.15779 0 8.5 0C12.8422 0 16.375 3.53279 16.375 7.875C16.375 9.73288 15.7944 11.5065 14.6959 13.0048L9.02936 20.7318C8.90567 20.9003 8.70892 21 8.5 21ZM8.5 1.3125C4.88133 1.3125 1.9375 4.25633 1.9375 7.875C1.9375 9.45154 2.43033 10.9573 3.36279 12.2287L8.5 19.2341L13.6375 12.2287C14.5697 10.9573 15.0625 9.45154 15.0625 7.875C15.0625 4.25633 12.1187 1.3125 8.5 1.3125ZM8.5 11.1562C6.69083 11.1562 5.21875 9.68417 5.21875 7.875C5.21875 6.06583 6.69083 4.59375 8.5 4.59375C10.3092 4.59375 11.7812 6.06583 11.7812 7.875C11.7812 9.68417 10.3092 11.1562 8.5 11.1562ZM8.5 5.90625C7.41437 5.90625 6.53125 6.78937 6.53125 7.875C6.53125 8.96063 7.41437 9.84375 8.5 9.84375C9.58563 9.84375 10.4688 8.96063 10.4688 7.875C10.4688 6.78937 9.58563 5.90625 8.5 5.90625Z" fill="#384685"/>
</svg>
