<svg width="42" height="42" viewBox="0 0 42 42" fill="none" xmlns="http://www.w3.org/2000/svg">
<path d="M11.5112 30.4894C11.0555 30.0337 11.0555 29.2951 11.5112 28.8393L12.6564 27.6942V27.6945C12.1658 26.9728 11.8416 26.1515 11.7065 25.2896L11.5906 24.5024H11.591C11.4969 23.8651 11.9376 23.2723 12.575 23.1782C13.2127 23.0844 13.8055 23.5252 13.8993 24.1625L14.0152 24.95C14.2206 26.1352 14.9749 27.1534 16.0494 27.6948C16.8345 28.0763 17.5734 28.0679 18.0787 27.673C18.6278 27.243 18.803 26.4337 18.5468 25.508L17.303 21.0177C16.7945 19.1789 17.2851 17.4067 18.5829 16.3921C19.7994 15.4412 21.4758 15.3354 23.0679 16.1092V16.1095C23.3241 16.2361 23.5702 16.3823 23.8045 16.5464L24.9367 15.4142V15.4139C25.3928 14.9604 26.1297 14.9614 26.5845 15.4161C27.0392 15.8709 27.0402 16.6079 26.5867 17.0639L25.4377 18.213V18.2127C25.9292 18.9327 26.255 19.753 26.3917 20.614L26.5076 21.4011C26.6004 22.0381 26.1596 22.6299 25.5229 22.7237C24.8859 22.8174 24.2934 22.3777 24.199 21.7409L24.0831 20.9535C23.8784 19.7679 23.1238 18.7497 22.0493 18.2084C21.2645 17.8269 20.5252 17.835 20.02 18.2302C19.4705 18.6599 19.2957 19.4688 19.5515 20.395L20.7957 24.8849C21.3042 26.7232 20.8136 28.4952 19.5161 29.5106C18.2996 30.4614 16.6232 30.5676 15.0308 29.7938V29.7941C14.7736 29.6678 14.5266 29.5223 14.2915 29.3589L13.161 30.4894H13.1614C12.7056 30.9451 11.967 30.9451 11.5113 30.4894L11.5112 30.4894ZM0.911168 26.9657C0.327834 26.381 0 25.5887 0 24.7625C0 23.9363 0.3278 23.144 0.911168 22.5593L19.1704 4.29428C20.0662 3.42219 21.0604 2.65752 22.1326 2.01527C27.4386 -1.2419 33.7085 -0.504898 38.1068 3.89353C42.5046 8.29128 43.2419 14.5619 39.9851 19.8669C39.3428 20.9395 38.5778 21.9336 37.7057 22.8295L19.4407 41.0887C18.8557 41.672 18.0634 41.9998 17.2375 41.9998C16.4114 41.9998 15.619 41.672 15.0344 41.0887L0.911168 26.9657ZM2.56059 25.3162L16.6839 39.4396C16.9899 39.7449 17.4854 39.7449 17.7914 39.4396L36.0564 21.1804V21.1807C36.7992 20.4138 37.4503 19.5639 37.9968 18.6469C41.2436 13.3575 39.1967 8.28186 36.4577 5.54269C33.7181 2.8031 28.6426 0.756179 23.3535 4.00327C22.4369 4.55014 21.5866 5.20119 20.8197 5.94369L2.5605 24.2087C2.25516 24.5147 2.25516 25.0102 2.5605 25.3161L2.56059 25.3162ZM28.2548 13.7462C27.5178 13.0092 27.1038 12.0095 27.1035 10.9672C27.1035 9.92454 27.5179 8.92487 28.2548 8.18787C28.9917 7.45087 29.9915 7.03687 31.0338 7.03687C32.0761 7.03687 33.0758 7.45093 33.8131 8.18787C34.5501 8.92485 34.9641 9.92454 34.9641 10.9672C34.9641 12.0095 34.5501 13.0092 33.8131 13.7462C33.0752 14.4822 32.0758 14.8953 31.0338 14.8953C29.9918 14.8953 28.9925 14.4822 28.2548 13.7462ZM29.5741 12.4265C29.9615 12.8136 30.4866 13.031 31.0338 13.031C31.5813 13.031 32.1064 12.8133 32.4935 12.4262C32.8805 12.0388 33.098 11.5141 33.098 10.9665C33.0976 10.419 32.8802 9.89396 32.4931 9.50688C32.1061 9.11983 31.5811 8.90239 31.0335 8.90239C30.486 8.90239 29.9609 9.11984 29.5738 9.5072C29.1874 9.89457 28.9703 10.4196 28.9703 10.9669C28.9703 11.5144 29.1877 12.0391 29.5741 12.4269V12.4265Z" fill="#384685"/>
</svg>
