<svg width="24" height="24" viewBox="0 0 24 24" fill="none" xmlns="http://www.w3.org/2000/svg">
<path d="M18.4295 16.4759H10.6657C10.0984 16.4798 9.54508 16.2977 9.0887 15.9568C8.63232 15.616 8.29742 15.1348 8.13417 14.5853L4.40978 2.38327C4.34711 2.17732 4.22052 1.99725 4.04874 1.86975C3.87697 1.74225 3.66915 1.6741 3.45608 1.67539H0.831214C0.722442 1.67559 0.614697 1.65411 0.514131 1.61219C0.413565 1.57028 0.322147 1.50874 0.245098 1.43109C0.0894898 1.27428 0.00185288 1.06137 0.00146613 0.839212C0.00107938 0.617052 0.0879745 0.403836 0.243036 0.246468C0.398097 0.0891008 0.608622 0.000472949 0.828298 8.1822e-05H3.45316C4.02098 -0.00442559 4.57494 0.177405 5.03191 0.518291C5.48888 0.859177 5.82422 1.34073 5.98761 1.89071L6.74882 4.38597H21.3314C21.7718 4.38648 22.2052 4.49782 22.5925 4.70996C22.9797 4.9221 23.3087 5.22838 23.5497 5.60117C23.7908 5.97397 23.9363 6.40156 23.9731 6.84541C24.01 7.28925 23.937 7.7354 23.7609 8.14362L20.8443 14.8714C20.6384 15.3464 20.3007 15.7508 19.872 16.0356C19.4434 16.3204 18.9423 16.4734 18.4295 16.4759ZM7.26505 6.06128L9.71492 14.0927C9.77692 14.2988 9.90286 14.4791 10.0741 14.6071C10.2453 14.7352 10.4528 14.804 10.6657 14.8036H18.4295C18.6216 14.8046 18.81 14.7495 18.972 14.6449C19.1339 14.5402 19.2625 14.3905 19.3423 14.2137L22.2588 7.48589C22.3253 7.33264 22.3529 7.16504 22.3392 6.99827C22.3255 6.8315 22.2708 6.67083 22.1801 6.53083C22.0895 6.39082 21.9657 6.27591 21.8201 6.19649C21.6744 6.11708 21.5115 6.07567 21.346 6.07603L7.26505 6.06128Z" fill="#1D1818"/>
<path d="M10.727 24.0001C10.1997 24.0001 9.68436 23.842 9.24599 23.5457C8.80762 23.2495 8.46595 22.8285 8.26419 22.3359C8.06243 21.8433 8.00964 21.3012 8.1125 20.7783C8.21536 20.2554 8.46924 19.775 8.84204 19.398C9.21485 19.021 9.68983 18.7642 10.2069 18.6602C10.724 18.5562 11.26 18.6096 11.7471 18.8136C12.2342 19.0176 12.6505 19.3632 12.9434 19.8065C13.2363 20.2498 13.3927 20.7711 13.3927 21.3042C13.3919 22.019 13.1108 22.7042 12.6111 23.2096C12.1113 23.715 11.4337 23.9993 10.727 24.0001ZM10.727 20.2837C10.5274 20.2837 10.3323 20.3436 10.1663 20.4557C10.0004 20.5678 9.87105 20.7272 9.79467 20.9137C9.7183 21.1002 9.69831 21.3054 9.73725 21.5033C9.77619 21.7013 9.8723 21.8831 10.0134 22.0259C10.1546 22.1686 10.3344 22.2658 10.5301 22.3052C10.7259 22.3445 10.9288 22.3243 11.1131 22.2471C11.2975 22.1698 11.4551 22.039 11.566 21.8712C11.6769 21.7034 11.7361 21.5061 11.7361 21.3042C11.7353 21.0338 11.6288 20.7747 11.4397 20.5835C11.2506 20.3923 10.9944 20.2845 10.727 20.2837Z" fill="#1D1818"/>
<path d="M18.2137 24.0001C17.6864 24.0001 17.1711 23.842 16.7327 23.5457C16.2943 23.2495 15.9526 22.8285 15.7509 22.3359C15.5491 21.8433 15.4963 21.3012 15.5992 20.7783C15.7021 20.2554 15.9559 19.775 16.3287 19.398C16.7015 19.021 17.1765 18.7642 17.6936 18.6602C18.2107 18.5562 18.7467 18.6096 19.2338 18.8136C19.7209 19.0176 20.1372 19.3632 20.4301 19.8065C20.723 20.2498 20.8794 20.7711 20.8794 21.3042C20.8786 22.019 20.5975 22.7042 20.0977 23.2096C19.598 23.715 18.9204 23.9993 18.2137 24.0001ZM18.2137 20.2837C18.0141 20.2837 17.819 20.3436 17.653 20.4557C17.4871 20.5678 17.3577 20.7272 17.2814 20.9137C17.205 21.1002 17.185 21.3054 17.2239 21.5033C17.2629 21.7013 17.359 21.8831 17.5001 22.0259C17.6412 22.1686 17.8211 22.2658 18.0168 22.3052C18.2126 22.3445 18.4155 22.3243 18.5998 22.2471C18.7842 22.1698 18.9418 22.039 19.0527 21.8712C19.1636 21.7034 19.2228 21.5061 19.2228 21.3042C19.222 21.0338 19.1155 20.7747 18.9264 20.5835C18.7373 20.3923 18.4811 20.2845 18.2137 20.2837Z" fill="#1D1818"/>
</svg>
