<svg width="50" height="48" viewBox="0 0 50 48" fill="none" xmlns="http://www.w3.org/2000/svg">
<path d="M49.0449 23.5783L45.6966 19.1814L46.8098 13.7702C46.8736 13.4625 46.723 13.1498 46.4435 13.0087L41.5166 10.5069L40.1713 5.14669C40.0947 4.84234 39.8246 4.62838 39.5108 4.62146L33.9873 4.49754L30.4477 0.25229C30.2472 0.00917029 29.9064 -0.0655432 29.6243 0.0638502L24.5935 2.35798L19.5636 0.0620772C19.2814 -0.0669522 18.9406 0.00959026 18.7402 0.250517L15.2017 4.49614L9.6788 4.61861C9.36534 4.62553 9.09489 4.83949 9.01835 5.14384L7.67225 10.504L2.745 13.0041C2.46471 13.1452 2.31417 13.4579 2.37796 13.7637L3.4904 19.1786L0.142149 23.5787C-0.047383 23.8284 -0.047383 24.1736 0.142149 24.4218L3.4904 28.8187L2.37646 34.2299C2.31268 34.5376 2.46321 34.8503 2.74278 34.9914L7.66966 37.4914L9.01501 42.8516C9.09155 43.156 9.36163 43.37 9.67546 43.3769L15.199 43.5008L18.7393 47.7479C18.8745 47.9112 19.0724 47.9994 19.2736 47.9994C19.3713 47.9994 19.4697 47.979 19.5627 47.9367L24.5941 45.6422L29.6231 47.9367C29.907 48.0676 30.2453 47.991 30.4465 47.7483L33.985 43.5027L39.5078 43.382C39.8213 43.3736 40.0918 43.1593 40.1683 42.8553L41.5144 37.4965L46.443 34.9947C46.7226 34.8536 46.8731 34.5409 46.8094 34.2351L45.6969 28.8202L49.0459 24.4218C49.2343 24.1732 49.2343 23.8266 49.0448 23.5784L49.0449 23.5783ZM44.3969 28.2285C44.2755 28.3882 44.2285 28.5937 44.2693 28.7895L45.3384 33.9934L40.6 36.3983C40.4206 36.4883 40.2891 36.653 40.2399 36.8488L38.9467 42.0002L33.6375 42.1175C33.4363 42.1226 33.2468 42.2145 33.1185 42.369L29.717 46.4492L24.8827 44.2432C24.6994 44.1616 24.4883 44.1616 24.305 44.2432L19.4682 46.4492L16.0656 42.3669C15.9373 42.2123 15.7478 42.1205 15.5466 42.1172L10.2374 41.9965L8.9442 36.8437C8.89499 36.6483 8.76305 36.4835 8.58408 36.3932L3.84746 33.99L4.91726 28.7895C4.95809 28.5923 4.91143 28.3867 4.78969 28.2271L1.57161 24.0004L4.78969 19.7701C4.91107 19.6104 4.95809 19.4049 4.91726 19.2091L3.84821 14.0052L8.58557 11.6021C8.76563 11.5121 8.89758 11.3473 8.94679 11.1516L10.24 5.99872L15.5491 5.88135C15.7503 5.87625 15.9399 5.7844 16.0682 5.62986L19.4689 1.5494L24.3042 3.75712C24.4876 3.83876 24.6986 3.83876 24.8819 3.75712L29.718 1.55117L33.1206 5.63163C33.2489 5.78617 33.4384 5.87802 33.6396 5.88131L38.9488 6.00013L40.242 11.1548C40.2912 11.3501 40.4228 11.5149 40.6021 11.6053L45.3387 14.0102L44.2689 19.2107C44.2281 19.4079 44.2747 19.6135 44.3965 19.7731L47.6146 23.9998L44.3969 28.2285Z" fill="#384685"/>
<path d="M24.146 7.12549C14.8419 7.12549 7.27173 14.6953 7.27173 24.0007C7.27173 33.306 14.8415 40.8758 24.146 40.8758C33.45 40.8758 41.0202 33.306 41.0202 24.0007C41.0206 14.6955 33.4508 7.12549 24.146 7.12549ZM24.146 39.4818C15.6092 39.4818 8.66392 32.5374 8.66392 24.0007C8.66392 15.4639 15.609 8.51954 24.146 8.51954C32.6829 8.51954 39.628 15.4639 39.628 24.0007C39.6284 32.5374 32.6833 39.4818 24.146 39.4818Z" fill="#384685"/>
<path d="M28.3784 18.995L28.7327 15.9223C28.7973 15.3599 28.7225 14.7869 28.5162 14.2686C27.5328 11.794 25.8751 11.4284 25.0051 11.4933C24.5505 11.5054 24.1186 11.7091 23.8211 12.0543C23.5244 12.3976 23.3852 12.8532 23.4381 13.3016L23.7202 15.7301C23.7668 16.126 23.6921 16.5222 23.5153 16.8554L21.0466 21.1534C20.9139 21.4017 20.7186 21.6141 20.5137 21.745L20.3832 21.8179C20.279 21.5642 20.0311 21.3845 19.7406 21.3845H14.801C14.4168 21.3845 14.1052 21.6973 14.1052 22.0814V31.6719C14.1052 32.056 14.4172 32.3688 14.801 32.3688H19.7406C20.1164 32.3688 20.419 32.0681 20.4317 31.6952L20.8104 31.9168C21.644 32.4114 22.5994 32.6731 23.5715 32.6731L31.4329 32.6713C31.4558 32.6731 31.4788 32.6731 31.5018 32.6731C32.6703 32.6731 33.6567 31.8082 33.8116 30.6352C33.8473 30.3651 33.8371 30.0998 33.7853 29.845C34.5704 29.5527 35.1737 28.8456 35.2911 27.9584C35.3563 27.4586 35.2553 26.9608 35.0235 26.5343C35.1613 26.4461 35.2903 26.3422 35.4092 26.2248C35.8535 25.783 36.0984 25.1933 36.0984 24.566C36.0984 23.9256 35.824 23.3578 35.4004 22.932C35.5036 22.8266 35.6297 22.7461 35.712 22.6218C36.0714 22.0762 36.1855 21.4204 36.0324 20.7728C35.786 19.7259 34.8529 18.9951 33.7628 18.9951L28.3784 18.995ZM19.0446 30.9751H15.4967V22.778H19.0446V30.9751ZM34.6769 21.0926C34.7407 21.3627 34.6948 21.6346 34.5493 21.8559C34.4126 22.0625 34.1976 22.2025 33.9588 22.2535H28.9901C28.6059 22.2535 28.2943 22.5663 28.2943 22.9504C28.2943 23.3346 28.6063 23.6474 28.9901 23.6474H33.9607C34.393 23.7407 34.7057 24.1183 34.7057 24.567C34.7057 24.8203 34.6062 25.0598 34.4269 25.2384C34.2483 25.4152 34.0121 25.5121 33.7613 25.5121H33.7519L28.676 25.5114C28.2918 25.5114 27.9801 25.8241 27.9801 26.2083C27.9801 26.5925 28.2922 26.9052 28.676 26.9052H33.504C33.7825 27.1053 33.9556 27.4297 33.9108 27.7771C33.8419 28.2921 33.3772 28.6573 32.853 28.5914C32.8428 28.5899 32.8337 28.5976 32.8231 28.5968C32.8027 28.595 32.7852 28.5848 32.7648 28.5848L28.3359 28.5746H28.334C27.9499 28.5746 27.6389 28.8855 27.6382 29.2697C27.6375 29.6539 27.9484 29.9666 28.3326 29.9681L32.3598 29.9772C32.4193 30.1259 32.4539 30.2848 32.4317 30.4539C32.3671 30.9383 31.9531 31.3666 31.4534 31.2799H23.5716C22.8484 31.2799 22.1388 31.0863 21.5176 30.7189L20.8014 30.2976C20.692 30.2327 20.5346 30.2046 20.4369 30.197V23.2957C20.543 23.2895 20.6479 23.2669 20.7412 23.2155L21.23 22.9403C21.6703 22.66 22.0315 22.2674 22.2652 21.8271L24.7339 17.529C25.0561 16.9258 25.1833 16.2475 25.1043 15.5695L24.8221 13.1409C24.8119 13.0542 24.8509 12.9929 24.8757 12.966C24.9001 12.9372 24.9555 12.888 25.0448 12.8843C26.0002 12.8912 26.712 13.4978 27.2227 14.7826C27.3452 15.0884 27.3886 15.4303 27.3503 15.7649L26.9227 19.5191C26.871 19.7265 26.9184 19.9507 27.0503 20.1191C27.1819 20.289 27.3878 20.3892 27.6018 20.3892H33.7624C34.1962 20.3888 34.5811 20.6848 34.6769 21.0927L34.6769 21.0926Z" fill="#384685"/>
</svg>
